<svg id="eOEDMZLABX11" xmlns="http://www.w3.org/2000/svg" xmlns:xlink="http://www.w3.org/1999/xlink" viewBox="0 0 500 500" shape-rendering="geometricPrecision" text-rendering="geometricPrecision" project-id="ef367f2568ef4459a9e1c643aca78a06" export-id="879db247defa4636b2f8278204d25da2" cached="false"><ellipse rx="211.487088" ry="211.487088" transform="matrix(1.154209 0 0 1.154209 250 250)" fill="#fff" stroke-width="0"/><g transform="matrix(1.298429 0 0 1.298429-74.60727-74.607259)"><path d="M101.88435,250c0-81.57305,66.31364-147.70107,148.11565-147.70107s148.11565,66.12802,148.11565,147.70107-66.31364,147.70107-148.11565,147.70107-148.11565-66.12802-148.11565-147.70107ZM250,373.93591c68.67611,0,124.34909-55.488,124.34909-123.93591s-55.67298-123.93591-124.34909-123.93591-124.34909,55.488-124.34909,123.93591s55.67298,123.93591,124.34909,123.93591Z" stroke-width="0"/><path d="M216.16184,149.37667c0-35.15438,12.76827-67.37629,33.99339-92.42617-.10263,1.33559-.15489,2.68528-.15489,4.04717c0,28.76995,23.32265,52.0926,52.0926,52.0926s52.0926-23.32265,52.0926-52.0926c0-22.96301-14.8579-42.45578-35.48454-49.38913C332.70585,7.24938,347.61864,4.898,363.08994,4.898c81.14615,0,146.9281,64.6853,146.9281,144.47867s-65.78195,144.47867-146.9281,144.47867-146.9281-64.6853-146.9281-144.47867Z" transform="matrix(.588958 0 0 0.588958 36.1553 162.023)" stroke-width="0"/></g></svg>
